<?xml version="1.0"?>
<!-- Generated by SVGo -->
<svg width="1200" height="900"
     xmlns="http://www.w3.org/2000/svg"
     xmlns:xlink="http://www.w3.org/1999/xlink">
<title>z</title>
<rect x="0" y="0" width="1200" height="900" style="fill: #ffffff" />
<g style="font-family: Helvetica; font-size: 12">
<rect x="0" y="0" width="1200" height="900" style="stroke: #ffffff; opacity: 1.0000; fill: #ffffff; fill-opacity: 1.0000" />
<text x="600" y="17"  style="text-anchor:middle; font-size: 13" >test</text>
<line x1="48" y1="864" x2="48" y2="876" style="stroke:#000000; stroke-width: 1; fill:none; opacity: 1.000; " />
<text x="48" y="894"  style="text-anchor:middle" >500m</text>
<line x1="128" y1="864" x2="128" y2="876" style="stroke:#000000; stroke-width: 1; fill:none; opacity: 1.000; " />
<text x="128" y="894"  style="text-anchor:middle" >1.0</text>
<line x1="209" y1="864" x2="209" y2="876" style="stroke:#000000; stroke-width: 1; fill:none; opacity: 1.000; " />
<text x="209" y="894"  style="text-anchor:middle" >1.5</text>
<line x1="289" y1="864" x2="289" y2="876" style="stroke:#000000; stroke-width: 1; fill:none; opacity: 1.000; " />
<text x="289" y="894"  style="text-anchor:middle" >2.0</text>
<line x1="370" y1="864" x2="370" y2="876" style="stroke:#000000; stroke-width: 1; fill:none; opacity: 1.000; " />
<text x="370" y="894"  style="text-anchor:middle" >2.5</text>
<line x1="450" y1="864" x2="450" y2="876" style="stroke:#000000; stroke-width: 1; fill:none; opacity: 1.000; " />
<text x="450" y="894"  style="text-anchor:middle" >3.0</text>
<line x1="531" y1="864" x2="531" y2="876" style="stroke:#000000; stroke-width: 1; fill:none; opacity: 1.000; " />
<text x="531" y="894"  style="text-anchor:middle" >3.5</text>
<line x1="612" y1="864" x2="612" y2="876" style="stroke:#000000; stroke-width: 1; fill:none; opacity: 1.000; " />
<text x="612" y="894"  style="text-anchor:middle" >4.0</text>
<line x1="692" y1="864" x2="692" y2="876" style="stroke:#000000; stroke-width: 1; fill:none; opacity: 1.000; " />
<text x="692" y="894"  style="text-anchor:middle" >4.5</text>
<line x1="773" y1="864" x2="773" y2="876" style="stroke:#000000; stroke-width: 1; fill:none; opacity: 1.000; " />
<text x="773" y="894"  style="text-anchor:middle" >5.0</text>
<line x1="853" y1="864" x2="853" y2="876" style="stroke:#000000; stroke-width: 1; fill:none; opacity: 1.000; " />
<text x="853" y="894"  style="text-anchor:middle" >5.5</text>
<line x1="934" y1="864" x2="934" y2="876" style="stroke:#000000; stroke-width: 1; fill:none; opacity: 1.000; " />
<text x="934" y="894"  style="text-anchor:middle" >6.0</text>
<line x1="1014" y1="864" x2="1014" y2="876" style="stroke:#000000; stroke-width: 1; fill:none; opacity: 1.000; " />
<text x="1014" y="894"  style="text-anchor:middle" >6.5</text>
<line x1="1095" y1="864" x2="1095" y2="876" style="stroke:#000000; stroke-width: 1; fill:none; opacity: 1.000; " />
<text x="1095" y="894"  style="text-anchor:middle" >7.0</text>
<line x1="1176" y1="864" x2="1176" y2="876" style="stroke:#000000; stroke-width: 1; fill:none; opacity: 1.000; " />
<text x="1176" y="894"  style="text-anchor:middle" >7.5</text>
<line x1="48" y1="870" x2="1176" y2="870" style="stroke:#000000; stroke-width: 2; fill:none; opacity: 1.000; " />
<line x1="42" y1="870" x2="54" y2="870" style="stroke:#000000; stroke-width: 1; fill:none; opacity: 1.000; " />
<text x="36" y="874"  style="text-anchor:end" >500m</text>
<line x1="42" y1="811" x2="54" y2="811" style="stroke:#000000; stroke-width: 1; fill:none; opacity: 1.000; " />
<text x="36" y="815"  style="text-anchor:end" >1.0</text>
<line x1="42" y1="752" x2="54" y2="752" style="stroke:#000000; stroke-width: 1; fill:none; opacity: 1.000; " />
<text x="36" y="756"  style="text-anchor:end" >1.5</text>
<line x1="42" y1="693" x2="54" y2="693" style="stroke:#000000; stroke-width: 1; fill:none; opacity: 1.000; " />
<text x="36" y="697"  style="text-anchor:end" >2.0</text>
<line x1="42" y1="634" x2="54" y2="634" style="stroke:#000000; stroke-width: 1; fill:none; opacity: 1.000; " />
<text x="36" y="638"  style="text-anchor:end" >2.5</text>
<line x1="42" y1="575" x2="54" y2="575" style="stroke:#000000; stroke-width: 1; fill:none; opacity: 1.000; " />
<text x="36" y="579"  style="text-anchor:end" >3.0</text>
<line x1="42" y1="516" x2="54" y2="516" style="stroke:#000000; stroke-width: 1; fill:none; opacity: 1.000; " />
<text x="36" y="520"  style="text-anchor:end" >3.5</text>
<line x1="42" y1="456" x2="54" y2="456" style="stroke:#000000; stroke-width: 1; fill:none; opacity: 1.000; " />
<text x="36" y="460"  style="text-anchor:end" >4.0</text>
<line x1="42" y1="397" x2="54" y2="397" style="stroke:#000000; stroke-width: 1; fill:none; opacity: 1.000; " />
<text x="36" y="401"  style="text-anchor:end" >4.5</text>
<line x1="42" y1="338" x2="54" y2="338" style="stroke:#000000; stroke-width: 1; fill:none; opacity: 1.000; " />
<text x="36" y="342"  style="text-anchor:end" >5.0</text>
<line x1="42" y1="279" x2="54" y2="279" style="stroke:#000000; stroke-width: 1; fill:none; opacity: 1.000; " />
<text x="36" y="283"  style="text-anchor:end" >5.5</text>
<line x1="42" y1="220" x2="54" y2="220" style="stroke:#000000; stroke-width: 1; fill:none; opacity: 1.000; " />
<text x="36" y="224"  style="text-anchor:end" >6.0</text>
<line x1="42" y1="161" x2="54" y2="161" style="stroke:#000000; stroke-width: 1; fill:none; opacity: 1.000; " />
<text x="36" y="165"  style="text-anchor:end" >6.5</text>
<line x1="42" y1="102" x2="54" y2="102" style="stroke:#000000; stroke-width: 1; fill:none; opacity: 1.000; " />
<text x="36" y="106"  style="text-anchor:end" >7.0</text>
<line x1="42" y1="42" x2="54" y2="42" style="stroke:#000000; stroke-width: 1; fill:none; opacity: 1.000; " />
<text x="36" y="46"  style="text-anchor:end" >7.5</text>
<line x1="48" y1="870" x2="48" y2="42" style="stroke:#000000; stroke-width: 2; fill:none; opacity: 1.000; " />
<line x1="128" y1="811" x2="289" y2="693" style="stroke:#0000cc; stroke-width: 1; fill:none; opacity: 1.000; " />
<line x1="289" y1="693" x2="450" y2="575" style="stroke:#0000cc; stroke-width: 1; fill:none; opacity: 1.000; " />
<line x1="450" y1="575" x2="612" y2="338" style="stroke:#0000cc; stroke-width: 1; fill:none; opacity: 1.000; " />
<line x1="612" y1="338" x2="773" y2="220" style="stroke:#0000cc; stroke-width: 1; fill:none; opacity: 1.000; " />
<line x1="773" y1="220" x2="934" y2="102" style="stroke:#0000cc; stroke-width: 1; fill:none; opacity: 1.000; " />
<line x1="934" y1="102" x2="1095" y2="575" style="stroke:#0000cc; stroke-width: 1; fill:none; opacity: 1.000; " />
<rect x="1050" y="60" width="98" height="22" style="stroke:#202020; stroke-opacity: 1.000; stroke-width: 1; fill: #f0f0f0; fill-opacity: 0.753" />
<line x1="1058" y1="70" x2="1085" y2="70" style="stroke:#0000cc; stroke-width: 1; fill:none; opacity: 1.000; " />
<text x="1096" y="74"  style="text-anchor:begin; font-size: 11" >Trace {1}</text>
</g>
</svg>
